#!OML:ASF E:\id_vita\Project 1\Capture day 1\Session 1\Male1.ASF
:FULLY-SPECIFIED
:DEGREES
587
root 31.1536 16.3811 0.610429 315.227 94.8841 311.047
lowerback -5.86662 -3.8343 -9.92232
upperback -0.0843642 -4.34314 -0.990096
thorax 3.87395 -2.30504 4.09103
lowerneck -6.95239 -0.00333989 5.65268
upperneck 9.90931 -0.59683 0.134489
head 4.53489 -0.0420208 -1.00214
rclavicle -1.49151e-014 -6.75868e-015
rhumerus -33.2572 -17.1308 -82.027
rradius 17.2739
rwrist 14.9628
rhand -20.7845 33.1371
rfingers 7.12502
rthumb 5.58245 3.23068
lclavicle -1.49151e-014 -6.75868e-015
lhumerus -7.42394 -8.63606 89.9745
lradius 29.2722
lwrist 5.24618
lhand -13.332 45.3349
lfingers 7.12502
lthumb 12.7732 74.9241
rfemur -25.564 4.71419 16.4447
rtibia 19.0935
rfoot -10.7186 -17.4909
rtoes 1.03711
lfemur -1.70272 5.28372 -28.2482
ltibia 20.0768
lfoot -24.4395 -6.01957
ltoes -2.98519
588
root 31.2395 16.3745 0.616084 315.825 95.2382 311.422
lowerback -6.28188 -3.8995 -10.2651
upperback 0.059349 -4.33574 -1.09251
thorax 4.27792 -2.32551 4.14076
lowerneck -7.53648 0.0898881 5.69764
upperneck 10.6068 -0.559976 0.497236
head 4.4068 0.00842421 -0.8046
rclavicle 4.40308e-014 -6.36111e-015
rhumerus -32.8258 -17.1281 -82.2916
rradius 17.229
rwrist 14.8439
rhand -20.9985 34.4709
rfingers 7.12502
rthumb 5.37581 4.55906
lclavicle 4.40308e-014 -6.36111e-015
lhumerus -7.1174 -9.18164 90.0114
lradius 29.2385
lwrist 5.56055
lhand -12.9662 45.9134
lfingers 7.12502
lthumb 13.1258 75.4803
rfemur -25.7438 5.57419 15.8797
rtibia 18.8979
rfoot -10.6676 -18.4116
rtoes 0.507314
lfemur -1.35144 5.37411 -28.3923
ltibia 19.5641
lfoot -24.3911 -6.40597
ltoes -2.84672
589
root 31.3279 16.3655 0.619595 317.469 95.3557 312.935
lowerback -6.16879 -3.93136 -10.2337
upperback -0.272812 -4.41144 -1.10956
thorax 3.87038 -2.33198 4.11784
lowerneck -6.79283 -0.176221 5.29303
upperneck 9.95897 -0.844672 0.804401
head 4.51212 -0.139738 -0.72259
rclavicle -5.98466e-014 -4.13472e-014
rhumerus -33.2823 -16.9029 -82.2435
rradius 17.2385
rwrist 14.7444
rhand -20.4917 32.7382
rfingers 7.12502
rthumb 5.86512 2.83935
lclavicle -5.98466e-014 -4.13472e-014
lhumerus -7.75857 -9.3225 90.2394
lradius 29.1997
lwrist 5.65525
lhand -12.7983 45.9233
lfingers 7.12502
lthumb 13.2876 75.4797
rfemur -25.735 6.90127 15.411
rtibia 18.9295
rfoot -10.0948 -19.0853
rtoes -1.91673
lfemur -0.918126 5.34001 -28.2885
ltibia 19.0955
lfoot -24.3013 -6.64764
ltoes -2.45795
590
root 31.4167 16.3866 0.61731 319.826 95.5589 315.157
lowerback -6.53765 -3.92649 -10.1756
upperback -0.0615719 -4.34628 -1.17643
thorax 4.28217 -2.32153 3.99122
lowerneck -7.43543 -0.0799447 5.56833
upperneck 10.069 -0.796479 0.818531
head 4.68676 -0.0996451 -0.769213
rclavicle 2.6749e-014 -8.34896e-015
rhumerus -32.8566 -17.3883 -82.2852
rradius 17.2411
rwrist 15.049
rhand -20.6214 33.5569
rfingers 7.12502
rthumb 5.7399 3.65469
lclavicle 2.6749e-014 -8.34896e-015
lhumerus -7.4366 -9.81325 90.3444
lradius 29.02
lwrist 5.75479
lhand -12.7289 45.5812
lfingers 7.12502
lthumb 13.3545 75.1333
rfemur -26.2784 1.89291 17.5972
rtibia 19.1987
rfoot -9.87667 -17.1086
rtoes -0.509319
lfemur -0.481765 5.32761 -28.182
ltibia 18.6054
lfoot -24.6129 -7.044
ltoes -1.63629
591
root 31.5012 16.3705 0.614984 318.362 96.1113 313.476
lowerback -6.3788 -4.00136 -10.6461
upperback -0.462585 -4.44032 -1.31019
thorax 3.80891 -2.33582 4.1253
lowerneck -7.0812 0.000799614 5.84202
upperneck 10.7444 -0.674669 0.640666
head 4.37095 -0.0278223 -0.789918
rclavicle -6.84751e-014 -2.42517e-014
rhumerus -33.5108 -16.569 -82.4602
rradius 17.6779
rwrist 14.2636
rhand -20.7661 33.4843
rfingers 7.12502
rthumb 5.60022 3.57827
lclavicle -6.84751e-014 -2.42517e-014
lhumerus -8.21514 -9.86847 90.6576
lradius 28.9874
lwrist 5.70115
lhand -12.4506 45.6661
lfingers 7.12502
lthumb 13.6228 75.2004
rfemur -26.2877 0.858581 17.4475
rtibia 19.401
rfoot -12.0662 -16.0826
rtoes 3.25912
lfemur -0.242881 5.30771 -28.6409
ltibia 18.356
lfoot -24.7202 -7.45135
ltoes -0.982134
592
root 31.5803 16.347 0.612324 315.944 96.6806 310.855
lowerback -6.663 -4.05945 -11.2476
upperback -0.378772 -4.41155 -1.47747
thorax 4.08738 -2.34057 4.2609
lowerneck -7.21256 -0.169019 5.5543
upperneck 10.1475 -0.897678 0.818027
head 4.66673 -0.147536 -0.771804
rclavicle 2.84883e-014 4.05521e-014
rhumerus -33.1409 -16.4772 -82.634
rradius 17.647
rwrist 14.0999
rhand -21.0267 33.8459
rfingers 7.12502
rthumb 5.34859 3.93342
lclavicle 2.84883e-014 4.05521e-014
lhumerus -8.0094 -9.97011 90.8082
lradius 28.6717
lwrist 5.6231
lhand -12.2417 46.0005
lfingers 7.12502
lthumb 13.824 75.5212
rfemur -26.1317 2.10598 16.1964
rtibia 19.6618
rfoot -12.4379 -15.8315
rtoes 1.20005
lfemur -0.0231698 5.25911 -29.2392
ltibia 18.1412
lfoot -24.6324 -7.77235
ltoes -1.02501
593
root 31.6652 16.3322 0.622558 317.902 96.5755 312.808
lowerback -6.40484 -3.97374 -11.0832
upperback -0.612827 -4.36554 -1.42304
thorax 3.67792 -2.28909 4.26101
lowerneck -7.11718 -0.133514 5.45843
upperneck 10.2967 -0.855754 1.04466
head 4.70357 -0.11301 -0.674112
rclavicle -7.48238e-015 -3.97569e-016
rhumerus -33.2511 -17.8029 -81.8983
rradius 16.8346
rwrist 15.753
rhand -21.1615 34.6138
rfingers 7.12502
rthumb 5.21843 4.69807
lclavicle -7.48238e-015 -3.97569e-016
lhumerus -8.52645 -10.1685 91.0618
lradius 28.3081
lwrist 5.51687
lhand -12.1612 45.889
lfingers 7.12502
lthumb 13.9017 75.4044
rfemur -25.8416 3.22767 16.2544
rtibia 19.9424
rfoot -12.5889 -15.8076
rtoes 2.31096
lfemur 0.280283 5.21849 -28.8465
ltibia 18.1332
lfoot -24.733 -7.8277
ltoes -1.58478
594
root 31.7526 16.3195 0.621863 319.533 96.5873 314.351
lowerback -6.48263 -3.93613 -10.8807
upperback -0.671482 -4.32398 -1.42541
thorax 3.63745 -2.26156 4.15026
lowerneck -7.09519 -0.101389 5.55143
upperneck 10.2635 -0.834811 1.19209
head 4.68812 -0.0910102 -0.638686
rclavicle -1.58407e-016 -5.56597e-015
rhumerus -33.4527 -16.5771 -82.4957
rradius 17.5027
rwrist 14.5426
rhand -20.8506 33.8071
rfingers 7.12502
rthumb 5.51857 3.89893
lclavicle -1.58407e-016 -5.56597e-015
lhumerus -8.90048 -10.2599 91.2463
lradius 28.0645
lwrist 5.35613
lhand -12.0202 45.4935
lfingers 7.12502
lthumb 14.0375 74.9995
rfemur -25.7071 3.14796 16.5572
rtibia 20.2219
rfoot -12.5259 -14.8901
rtoes 5.19031
lfemur 0.568931 5.13367 -28.6321
ltibia 18.058
lfoot -24.8588 -7.8063
ltoes -2.29012
595
root 31.8404 16.3077 0.619313 319.836 97.0118 314.462
lowerback -6.69634 -3.99426 -11.0743
upperback -0.720194 -4.35077 -1.52301
thorax 3.71743 -2.27521 4.13914
lowerneck -7.14574 -0.10311 5.24493
upperneck 10.1726 -0.824553 1.37492
head 4.66501 -0.0913028 -0.520742
rclavicle 4.93545e-015 1.51076e-014
rhumerus -33.4747 -15.9779 -82.7833
rradius 17.6895
rwrist 13.9898
rhand -20.7944 33.4859
rfingers 7.12502
rthumb 5.57283 3.57916
lclavicle 4.93545e-015 1.51076e-014
lhumerus -9.17637 -10.2595 91.4369
lradius 27.7279
lwrist 5.17512
lhand -11.9101 45.3284
lfingers 7.12502
lthumb 14.1437 74.827
rfemur -25.5928 2.11011 16.6654
rtibia 20.4394
rfoot -12.0686 -13.5457
rtoes 3.88601
lfemur 0.815596 4.96137 -28.8676
ltibia 17.8944
lfoot -24.9064 -8.01312
ltoes -2.9696
